<svg width="40" height="40" viewBox="0 0 40 40" fill="none" xmlns="http://www.w3.org/2000/svg">
<path d="M25.9609 22.5703L26.8984 20.1094C27.0547 19.7187 26.7812 19.25 26.3125 19.25H24.0469C24.4766 18.5469 24.75 17.6875 24.75 16.75C26.2734 16.4375 27.25 16.0078 27.25 15.5C27.25 14.9922 26.1562 14.5234 24.5156 14.2109C24.125 12.9609 23.4609 11.6719 22.9141 11.0078C22.5234 10.5391 21.8984 10.3828 21.3516 10.6562L20.2969 11.2031C19.9453 11.3594 19.5156 11.3594 19.1641 11.2031L18.1094 10.6562C17.5625 10.3828 16.9375 10.5391 16.5469 11.0078C16.0391 11.6719 15.3359 12.9609 14.9844 14.2109C13.3047 14.5234 12.25 14.9922 12.25 15.5C12.25 16.0078 13.1875 16.4375 14.75 16.75C14.75 17.6875 14.9844 18.5469 15.4141 19.25H13.1875C12.7188 19.25 12.4453 19.7187 12.6016 20.1484L13.6172 22.4922C12.0547 23.3906 11 25.0703 11 27.0234V28.7812C11 29.7187 11.7812 30.5 12.7188 30.5H26.7422C27.6797 30.5 28.5 29.7187 28.5 28.7812V27.0234C28.5 25.1094 27.4844 23.4687 25.9609 22.5703ZM17.875 29.25L16.2344 21.75L18.1875 23L19.125 24.5625L17.875 29.25ZM21.625 29.25L20.375 24.5625L21.3125 23L23.2266 21.75L21.625 29.25ZM23.2266 17.6094C23.0703 18.0781 22.9531 18.5859 22.6016 18.8984C22.2109 19.2891 20.7266 19.7969 20.1016 17.9219C19.9844 17.6094 19.4766 17.6094 19.3594 17.9219C18.6953 19.9141 17.1719 19.2109 16.8594 18.8984C16.5078 18.5859 16.3906 18.0781 16.2344 17.6094C16.1953 17.4922 16 17.375 16 17.375V16.9453C17.0938 17.1016 18.3828 17.1797 19.75 17.1797C21.1172 17.1797 22.3672 17.1016 23.5 16.9453V17.375C23.5 17.375 23.2656 17.4922 23.2266 17.6094Z" fill="#989898"/>
</svg>
